<?xml version="1.0" encoding="UTF-8" standalone="no"?><!-- Generator: Gravit.io --><svg xmlns="http://www.w3.org/2000/svg" xmlns:xlink="http://www.w3.org/1999/xlink" style="isolation:isolate" viewBox="0 0 1024 1024" width="1024pt" height="1024pt"><defs><clipPath id="_clipPath_FG1d1hLL6SCnH6Cww0aIoutCECuuCbuW"><rect width="1024" height="1024"/></clipPath></defs><g clip-path="url(#_clipPath_FG1d1hLL6SCnH6Cww0aIoutCECuuCbuW)"><linearGradient id="_lgradient_0" x1="0.18220463920046992" y1="-0.03773230088104251" x2="0.8280114402679091" y2="0.9026343371862163" gradientTransform="matrix(863.106,0,0,592.747,80.391,179.901)" gradientUnits="userSpaceOnUse"><stop offset="0%" stop-opacity="1" style="stop-color:rgb(127,242,255)"/><stop offset="10%" stop-opacity="1" style="stop-color:rgb(131,237,255)"/><stop offset="20%" stop-opacity="1" style="stop-color:rgb(136,233,255)"/><stop offset="30.000000000000004%" stop-opacity="1" style="stop-color:rgb(140,228,255)"/><stop offset="40%" stop-opacity="1" style="stop-color:rgb(144,224,255)"/><stop offset="50%" stop-opacity="1" style="stop-color:rgb(149,219,255)"/><stop offset="60%" stop-opacity="1" style="stop-color:rgb(153,214,255)"/><stop offset="70%" stop-opacity="1" style="stop-color:rgb(157,210,255)"/><stop offset="80%" stop-opacity="1" style="stop-color:rgb(161,205,255)"/><stop offset="89.99999999999999%" stop-opacity="1" style="stop-color:rgb(166,201,255)"/><stop offset="99.99999999999999%" stop-opacity="1" style="stop-color:rgb(170,196,255)"/></linearGradient><path d=" M 428.5 319.5 C 370.39 478.061 407.321 595.956 380.5 604.5 L 380.5 604.5 C 356.515 612.141 314.885 521.721 269.938 431.301 L 269.938 431.301 C 225.202 341.304 177.179 251.309 140 258 L 140 258 C 89.771 267.042 45.375 455.062 120.5 592.5 L 120.5 592.5 C 221.619 777.495 485.936 773.248 532.5 772.5 L 532.5 772.5 C 604.201 771.348 766.24 768.745 865.5 646.5 L 865.5 646.5 C 985.59 498.601 944.559 260.834 891 248 L 891 248 C 854.659 239.293 800.612 331.282 749.75 423.271 L 749.75 423.271 C 698.81 515.403 651.063 607.535 627.5 598.5 L 627.5 598.5 C 602.435 588.889 639.199 478.017 595.5 309.5 L 595.5 309.5 C 583.125 261.779 562.74 183.169 527 180 L 527 180 C 526.25 179.933 525.508 179.901 524.758 179.901 L 524.758 179.901 C 479.665 179.916 436.058 298.876 428.5 319.5 Z " fill="url(#_lgradient_0)"/><linearGradient id="_lgradient_1" x1="0.2171977494397759" y1="0.09136105576519915" x2="0.7064647941176471" y2="0.8237230471698119" gradientTransform="matrix(714,0,0,477,162.5,366.5)" gradientUnits="userSpaceOnUse"><stop offset="0%" stop-opacity="1" style="stop-color:rgb(255,223,59)"/><stop offset="10%" stop-opacity="1" style="stop-color:rgb(254,226,64)"/><stop offset="20%" stop-opacity="1" style="stop-color:rgb(254,229,68)"/><stop offset="30.000000000000004%" stop-opacity="1" style="stop-color:rgb(253,233,73)"/><stop offset="40%" stop-opacity="1" style="stop-color:rgb(253,236,78)"/><stop offset="50%" stop-opacity="1" style="stop-color:rgb(252,239,83)"/><stop offset="60%" stop-opacity="1" style="stop-color:rgb(252,242,87)"/><stop offset="70%" stop-opacity="1" style="stop-color:rgb(251,245,92)"/><stop offset="80%" stop-opacity="1" style="stop-color:rgb(251,249,97)"/><stop offset="89.99999999999999%" stop-opacity="1" style="stop-color:rgb(250,252,101)"/><stop offset="99.99999999999999%" stop-opacity="1" style="stop-color:rgb(250,255,106)"/></linearGradient><path d=" M 162.5 843.5 L 365.5 451.5 C 458.833 562.167 552.167 672.833 645.5 783.5 L 645.5 783.5 C 722.5 649.167 799.5 514.833 876.5 380.5 L 876.5 380.5 C 861.833 382.167 847.167 383.834 832.5 385.5 L 832.5 385.5 L 622.5 724.5 C 534.5 605.167 446.5 485.833 358.5 366.5 L 358.5 366.5 L 162.5 843.5 Z " fill="url(#_lgradient_1)"/><clipPath id="_clipPath_RZDq2u4PauqHpXN6zslk9qT51pcRsV0r"><path d=" M 0 0 L 1024 0 L 1024 1024 L 0 1024 L 0 0 Z " fill="rgb(255,255,255)"/></clipPath><g clip-path="url(#_clipPath_RZDq2u4PauqHpXN6zslk9qT51pcRsV0r)"><linearGradient id="_lgradient_2" x1="0.22694397759103643" y1="0.12077358490566037" x2="1.2288879551820726" y2="0.12077358490566037"><stop offset="0%" stop-opacity="1" style="stop-color:rgb(255,255,0)"/><stop offset="10%" stop-opacity="1" style="stop-color:rgb(251,252,3)"/><stop offset="20%" stop-opacity="1" style="stop-color:rgb(247,249,7)"/><stop offset="30.000000000000004%" stop-opacity="1" style="stop-color:rgb(244,246,10)"/><stop offset="40%" stop-opacity="1" style="stop-color:rgb(240,243,13)"/><stop offset="50%" stop-opacity="1" style="stop-color:rgb(236,239,17)"/><stop offset="60%" stop-opacity="1" style="stop-color:rgb(232,236,20)"/><stop offset="70%" stop-opacity="1" style="stop-color:rgb(228,233,23)"/><stop offset="80%" stop-opacity="1" style="stop-color:rgb(225,230,26)"/><stop offset="89.99999999999999%" stop-opacity="1" style="stop-color:rgb(221,227,30)"/><stop offset="99.99999999999999%" stop-opacity="1" style="stop-color:rgb(217,224,33)"/></linearGradient><path d=" M 162.5 843.5 L 358.5 366.5 C 446.5 485.833 534.5 605.167 622.5 724.5 L 832.5 385.5 C 847.167 383.833 861.833 382.167 876.5 380.5 C 799.5 514.833 722.5 649.167 645.5 783.5 C 552.167 672.833 458.833 562.167 365.5 451.5 L 162.5 843.5 Z " fill="none" vector-effect="non-scaling-stroke" stroke-width="1" stroke="url(#_lgradient_2)" stroke-linejoin="miter" stroke-linecap="square" stroke-miterlimit="3"/></g></g></svg>