<svg id="Warstwa_1" data-name="Warstwa 1" xmlns="http://www.w3.org/2000/svg" xmlns:xlink="http://www.w3.org/1999/xlink" viewBox="0 0 411 731"><defs><linearGradient id="Gradient_bez_nazwy" x1="-304.16" y1="876.38" x2="-305.08" y2="877.22" gradientTransform="matrix(340, 0, 0, -219.39, 103794, 192700.45)" gradientUnits="userSpaceOnUse"><stop offset="0" stop-color="#ec5cff"/><stop offset="0.1" stop-color="#ee62fe"/><stop offset="0.2" stop-color="#f067fc"/><stop offset="0.3" stop-color="#f26dfb"/><stop offset="0.4" stop-color="#f472fa"/><stop offset="0.5" stop-color="#f678f8"/><stop offset="0.6" stop-color="#f77ef7"/><stop offset="0.7" stop-color="#f983f6"/><stop offset="0.8" stop-color="#fb89f5"/><stop offset="0.9" stop-color="#fd8ef3"/><stop offset="1" stop-color="#ff94f2"/></linearGradient><linearGradient id="Gradient_bez_nazwy_2" x1="-304.98" y1="876.66" x2="-303.98" y2="876.66" gradientTransform="matrix(300, 0, 0, -173.21, 91554, 152297.5)" xlink:href="#Gradient_bez_nazwy"/><linearGradient id="Gradient_bez_nazwy_3" x1="-303.61" y1="876.95" x2="-304.61" y2="876.56" gradientTransform="matrix(220, 0, 0, -196.3, 67194, 172620.21)" xlink:href="#Gradient_bez_nazwy"/><linearGradient id="Gradient_bez_nazwy_4" x1="-304.2" y1="876.9" x2="-305.08" y2="876.93" gradientTransform="matrix(340, 0, 0, -254.03, 103794, 223369.28)" xlink:href="#Gradient_bez_nazwy"/><linearGradient id="Gradient_bez_nazwy_5" x1="-303.24" y1="876.55" x2="-302.22" y2="876.57" gradientTransform="matrix(111, 0, 0, -156.46, 33960, 137382.95)" xlink:href="#Gradient_bez_nazwy"/><linearGradient id="Gradient_bez_nazwy_6" x1="-303.46" y1="876.45" x2="-302.46" y2="876.43" gradientTransform="matrix(120, 0, 0, -138.56, 36414, 121813.41)" xlink:href="#Gradient_bez_nazwy"/><linearGradient id="Gradient_bez_nazwy_7" x1="-303.34" y1="875.38" x2="-302.36" y2="874.35" gradientTransform="matrix(106.13, 0, 0, -61.27, 32169.47, 54322.3)" xlink:href="#Gradient_bez_nazwy"/><linearGradient id="Gradient_bez_nazwy_8" x1="-304.06" y1="875.67" x2="-303.09" y2="876.28" gradientTransform="matrix(171, 0, 0, -107.46, 52260, 94829.17)" xlink:href="#Gradient_bez_nazwy"/><linearGradient id="Gradient_bez_nazwy_9" x1="-303.82" y1="876.45" x2="-302.81" y2="876.45" gradientTransform="matrix(140, 0, 0, -138.56, 42534, 121513.19)" xlink:href="#Gradient_bez_nazwy"/><linearGradient id="Gradient_bez_nazwy_10" x1="-304.21" y1="876.01" x2="-303.21" y2="876.03" gradientTransform="matrix(171, 0, 0, -98.73, 52260, 86536.3)" xlink:href="#Gradient_bez_nazwy"/></defs><path d="M260.41,381.29,60,265.58V219.39l340,196.3-40,23.1Z" fill="url(#Gradient_bez_nazwy)"/><path d="M60,473.43,240,369.5l120,69.29L180,542.71Z" fill="url(#Gradient_bez_nazwy_2)"/><path d="M400,415.69V485L180,612V542.71Z" fill="url(#Gradient_bez_nazwy_3)"/><path d="M60,473.43V658.18l120,69.28,220-127-40-23.09L180,681.27V542.71Z" fill="url(#Gradient_bez_nazwy_4)"/><path d="M300,219.39,360,254l-60,34.64,40,23.1,71-41V237.29l-31-17.9,31-17.9V155.31Z" fill="url(#Gradient_bez_nazwy_5)"/><path d="M0,323.32,60,358,0,392.6v46.19L120,369.5,0,300.22Z" fill="url(#Gradient_bez_nazwy_6)"/><path d="M0,731H106.13L0,669.73Z" fill="url(#Gradient_bez_nazwy_7)"/><path d="M380,635.09,411,653V629.89l-11-6.35Zm-60,34.63,91,52.55v-23.1l-71-41Zm-80,46.19L266.13,731h80L280,692.82Z" fill="url(#Gradient_bez_nazwy_8)"/><path d="M80,0,0,46.19V92.38l80,46.18,60-34.64L40,46.19,120,0Z" fill="url(#Gradient_bez_nazwy_9)"/><path d="M240,0,411,98.73V52.54L360,23.09l20-11.54L360,0Z" fill="url(#Gradient_bez_nazwy_10)"/></svg>