<?xml version="1.0" encoding="UTF-8" standalone="no"?><!-- Generator: Gravit.io --><svg xmlns="http://www.w3.org/2000/svg" xmlns:xlink="http://www.w3.org/1999/xlink" style="isolation:isolate" viewBox="0 0 200 200" width="200pt" height="200pt"><defs><clipPath id="_clipPath_mF5c6TxMKWUd81EZN4BTEF5ArX2dhSqc"><rect width="200" height="200"/></clipPath></defs><g clip-path="url(#_clipPath_mF5c6TxMKWUd81EZN4BTEF5ArX2dhSqc)"><path d=" M 125 169.918 C 139.008 168.998 150 160.425 150 150 C 150 143.794 146.105 138.244 139.994 134.578 C 139.803 125.114 133.158 117.5 125 117.5 C 123.226 117.5 121.523 117.86 119.946 118.53 C 119.293 108.175 111.725 100 102.5 100 C 94.269 100 87.358 106.508 85.498 115.263 C 84.525 115.088 83.523 115 82.5 115 C 72.841 115 65 122.841 65 132.5 C 65 134.317 65.278 136.07 65.806 137.713 C 62.168 141.105 60 145.37 60 150 C 60 160.425 70.992 168.998 85 169.918 L 85 170 L 87.5 170 L 87.5 170 L 122.5 170 L 122.5 170 L 125 170 L 125 169.918 Z " fill="rgb(250,250,250)"/><path d=" M 88.003 104.796 C 86.428 102.121 83.991 99.778 80.947 97.951 C 80.774 89.389 74.762 82.5 67.381 82.5 C 65.775 82.5 64.235 82.826 62.808 83.432 C 62.217 74.063 55.37 66.667 47.024 66.667 C 39.577 66.667 33.324 72.555 31.641 80.476 C 30.761 80.318 29.854 80.238 28.929 80.238 C 20.19 80.238 13.095 87.333 13.095 96.071 C 13.095 97.716 13.346 99.302 13.824 100.788 C 10.533 103.857 8.571 107.715 8.571 111.905 C 8.571 121.337 18.517 129.094 31.19 129.926 L 31.19 130 L 33.452 130 L 33.452 130 L 62.029 130 C 63.167 120.676 71.121 113.444 80.75 113.444 Q 81.852 113.444 83.981 113.728 Q 86.093 107.328 88.003 104.796 L 88.003 104.796 Q 88.778 104.46 88.003 104.796 Z " fill="rgb(250,250,250)"/><path d=" M 51.942 64.11 C 62.879 49.475 80.342 40 100 40 C 133.115 40 160 66.885 160 100 C 160 114.204 155.054 127.262 146.786 137.539 L 146.786 137.539 C 145.578 136.44 144.208 135.44 142.716 134.545 C 142.51 124.345 135.348 116.139 126.556 116.139 C 124.643 116.139 122.808 116.527 121.108 117.249 C 120.404 106.089 112.248 97.278 102.306 97.278 C 97.635 97.278 93.359 99.222 90.063 102.44 C 88.544 100.704 86.65 99.16 84.475 97.855 C 84.284 88.391 77.639 80.778 69.481 80.778 C 67.706 80.778 66.004 81.138 64.427 81.807 C 63.896 73.389 58.794 66.411 51.942 64.11 Z  M 50.078 133.278 C 52.52 136.934 55.353 140.307 58.517 143.337 C 59.571 141.378 61.006 139.557 62.757 137.924 C 62.283 136.448 61.996 134.89 61.914 133.278 L 50.078 133.278 Z  M 39.155 65.383 C 51.212 44.256 73.954 30 100 30 C 138.634 30 170 61.366 170 100 C 170 117.655 163.45 133.792 152.648 146.11 L 152.648 146.11 C 153.099 147.377 153.365 148.695 153.453 150.048 C 154.461 149.271 155.604 148.718 156.768 148.49 L 194.105 141.158 C 197.358 140.519 198.445 137.803 196.529 135.096 L 174.549 104.037 C 172.634 101.331 172.58 96.899 174.429 94.146 L 195.645 62.561 C 197.494 59.808 196.342 57.119 193.073 56.56 L 155.569 50.14 C 152.301 49.581 149.129 46.485 148.49 43.232 L 141.158 5.895 C 140.519 2.642 137.803 1.555 135.096 3.471 L 104.037 25.451 C 101.331 27.366 96.899 27.42 94.146 25.571 L 62.561 4.355 C 59.808 2.506 57.119 3.658 56.56 6.927 L 50.14 44.431 C 49.581 47.699 46.485 50.871 43.232 51.51 L 5.895 58.842 L 5.895 58.842 L 5.895 58.842 C 2.642 59.481 1.555 62.197 3.471 64.904 L 15.797 82.322 C 18.83 79.797 22.73 78.278 26.981 78.278 C 28.004 78.278 29.006 78.366 29.979 78.541 C 31.204 72.776 34.618 67.986 39.155 65.383 Z  M 38.412 133.278 C 43.052 141.84 49.425 149.327 57.06 155.269 C 59.513 164.584 70.234 171.767 83.444 172.634 L 83.444 172.722 L 86.139 172.722 L 86.139 172.722 L 123.861 172.722 L 123.861 172.722 L 126.556 172.722 L 126.556 172.634 C 135.748 172.031 143.735 168.369 148.577 163.061 L 143.44 193.073 C 142.881 196.342 140.192 197.494 137.439 195.645 L 105.854 174.429 C 103.101 172.58 98.669 172.634 95.963 174.549 L 64.904 196.529 C 62.197 198.445 59.481 197.358 58.842 194.105 L 51.51 156.768 C 50.871 153.515 47.699 150.419 44.431 149.86 L 6.927 143.44 C 3.658 142.881 2.506 140.192 4.355 137.439 L 11.58 126.683 C 16.089 130.31 22.4 132.731 29.481 133.196 L 29.481 133.278 L 31.981 133.278 L 31.981 133.278 L 38.412 133.278 Z " fill-rule="evenodd" fill="rgb(150,150,150)"/></g></svg>