<?xml version="1.0" encoding="UTF-8" standalone="no"?><!-- Generator: Gravit.io --><svg xmlns="http://www.w3.org/2000/svg" xmlns:xlink="http://www.w3.org/1999/xlink" style="isolation:isolate" viewBox="0 0 200 200" width="200pt" height="200pt"><defs><clipPath id="_clipPath_DBNsV31k7zu9J34gNYwWuDIbpd3yQKYE"><rect width="200" height="200"/></clipPath></defs><g clip-path="url(#_clipPath_DBNsV31k7zu9J34gNYwWuDIbpd3yQKYE)"><path d=" M 125 169.918 C 139.008 168.998 150 160.425 150 150 C 150 143.794 146.105 138.244 139.994 134.578 C 139.803 125.114 133.158 117.5 125 117.5 C 123.226 117.5 121.523 117.86 119.946 118.53 C 119.293 108.175 111.725 100 102.5 100 C 94.269 100 87.358 106.508 85.498 115.263 C 84.525 115.088 83.523 115 82.5 115 C 72.841 115 65 122.841 65 132.5 C 65 134.317 65.278 136.07 65.806 137.713 C 62.168 141.105 60 145.37 60 150 C 60 160.425 70.992 168.998 85 169.918 L 85 170 L 87.5 170 L 87.5 170 L 122.5 170 L 122.5 170 L 125 170 L 125 169.918 Z " fill="rgb(250,250,250)"/><path d=" M 88.003 104.796 C 86.428 102.121 83.991 99.778 80.947 97.951 C 80.774 89.389 74.762 82.5 67.381 82.5 C 65.775 82.5 64.235 82.826 62.808 83.432 C 62.217 74.063 55.37 66.667 47.024 66.667 C 39.577 66.667 33.324 72.555 31.641 80.476 C 30.761 80.318 29.854 80.238 28.929 80.238 C 20.19 80.238 13.095 87.333 13.095 96.071 C 13.095 97.716 13.346 99.302 13.824 100.788 C 10.533 103.857 8.571 107.715 8.571 111.905 C 8.571 121.337 18.517 129.094 31.19 129.926 L 31.19 130 L 33.452 130 L 33.452 130 L 62.029 130 C 63.167 120.676 71.121 113.444 80.75 113.444 Q 81.852 113.444 83.981 113.728 Q 86.093 107.328 88.003 104.796 L 88.003 104.796 Q 88.778 104.46 88.003 104.796 Z " fill="rgb(250,250,250)"/><path d=" M 27.122 133.034 C 39.711 160.724 67.622 180 100 180 C 114.653 180 128.392 176.052 140.196 169.144 L 140.196 169.144 C 136.22 171.067 131.567 172.305 126.556 172.634 L 126.556 172.722 L 123.861 172.722 L 123.861 172.722 L 86.139 172.722 L 86.139 172.722 L 83.444 172.722 L 83.444 172.634 C 68.347 171.643 56.5 162.403 56.5 151.167 C 56.5 146.176 58.837 141.579 62.757 137.924 C 62.288 136.465 62.003 134.926 61.917 133.333 L 31.786 133.333 L 31.786 133.333 L 29.286 133.333 L 29.286 133.252 C 28.554 133.204 27.831 133.135 27.122 133.034 Z  M 22.846 78.789 C 30.034 52.628 50.185 31.812 75.952 23.7 C 72.113 33.39 70 43.95 70 55 C 70 64.383 71.524 73.413 74.347 81.85 C 72.764 81.194 71.061 80.833 69.286 80.833 C 67.511 80.833 65.808 81.194 64.231 81.863 C 63.578 71.509 56.011 63.333 46.786 63.333 C 38.555 63.333 31.644 69.841 29.783 78.597 C 28.811 78.421 27.809 78.333 26.786 78.333 C 25.43 78.333 24.11 78.488 22.846 78.789 Z  M 146.628 164.97 C 156.243 158.075 164.255 149.089 170.014 138.684 C 165.138 139.546 160.122 140 155 140 C 152.982 140 150.98 139.93 148.997 139.788 C 151.86 143.081 153.5 146.986 153.5 151.167 C 153.5 156.415 150.916 161.227 146.628 164.97 L 146.628 164.97 Z " fill-rule="evenodd" fill="rgb(150,150,150)"/></g></svg>