<?xml version="1.0" encoding="UTF-8" standalone="no"?><!-- Generator: Gravit.io --><svg xmlns="http://www.w3.org/2000/svg" xmlns:xlink="http://www.w3.org/1999/xlink" style="isolation:isolate" viewBox="0 0 200 200" width="200pt" height="200pt"><defs><clipPath id="_clipPath_EjxipP0hEQ0U38adc0pWe6OOsNOWfx96"><rect width="200" height="200"/></clipPath></defs><g clip-path="url(#_clipPath_EjxipP0hEQ0U38adc0pWe6OOsNOWfx96)"><path d=" M 140 179.837 C 168.016 177.997 190 160.851 190 140 C 190 127.588 182.21 116.489 169.988 109.155 C 169.606 90.227 156.315 75 140 75 C 136.451 75 133.045 75.721 129.891 77.059 C 128.585 56.351 113.45 40 95 40 C 78.539 40 64.717 53.015 60.995 70.527 C 59.05 70.176 57.046 70 55 70 C 35.683 70 20 85.683 20 105 C 20 108.635 20.555 112.141 21.612 115.426 C 14.337 122.209 10 130.739 10 140 C 10 160.851 31.984 177.997 60 179.837 L 60 180 L 65 180 L 65 180 L 135 180 L 135 180 L 140 180 L 140 179.837 Z " fill="rgb(250,250,250)"/></g></svg>