<?xml version="1.0" encoding="UTF-8" standalone="no"?><!-- Generator: Gravit.io --><svg xmlns="http://www.w3.org/2000/svg" xmlns:xlink="http://www.w3.org/1999/xlink" style="isolation:isolate" viewBox="0 0 200 200" width="200pt" height="200pt"><defs><clipPath id="_clipPath_UeRGuzCZUYZdOkzYTGRmN2wVxQb341hh"><rect width="200" height="200"/></clipPath></defs><g clip-path="url(#_clipPath_UeRGuzCZUYZdOkzYTGRmN2wVxQb341hh)"><path d=" M 157.929 169.895 C 175.899 168.715 190 157.717 190 144.343 C 190 136.382 185.003 129.263 177.164 124.559 C 176.919 112.419 168.394 102.652 157.929 102.652 C 155.653 102.652 153.468 103.114 151.445 103.972 C 150.608 90.69 140.9 80.202 129.066 80.202 C 118.507 80.202 109.642 88.55 107.254 99.782 C 106.007 99.557 104.721 99.444 103.409 99.444 C 91.019 99.444 80.96 109.504 80.96 121.894 C 80.96 124.225 81.316 126.474 81.993 128.581 C 77.327 132.932 74.545 138.403 74.545 144.343 C 74.545 157.717 88.646 168.715 106.616 169.895 L 106.616 170 L 109.823 170 L 109.823 170 L 154.722 170 L 154.722 170 L 157.929 170 L 157.929 169.895 Z " fill="rgb(250,250,250)"/><path d=" M 110.468 86.355 C 108.448 82.923 105.322 79.917 101.417 77.574 C 101.195 66.589 93.482 57.753 84.014 57.753 C 81.954 57.753 79.978 58.171 78.148 58.948 C 77.39 46.93 68.606 37.441 57.899 37.441 C 48.346 37.441 40.325 44.994 38.165 55.157 C 37.037 54.953 35.873 54.851 34.686 54.851 C 23.476 54.851 14.375 63.952 14.375 75.162 C 14.375 77.272 14.697 79.306 15.31 81.213 C 11.088 85.149 8.571 90.1 8.571 95.474 C 8.571 107.574 21.329 117.524 37.588 118.592 L 37.588 118.687 L 40.489 118.687 L 40.489 118.687 L 77.148 118.687 C 78.608 106.726 88.811 97.449 101.164 97.449 Q 102.578 97.449 105.309 97.813 Q 108.019 89.603 110.468 86.355 L 110.468 86.355 Q 111.463 85.923 110.468 86.355 Z " fill="rgb(250,250,250)"/></g></svg>