<?xml version="1.0" encoding="UTF-8" standalone="no"?><!-- Generator: Gravit.io --><svg xmlns="http://www.w3.org/2000/svg" xmlns:xlink="http://www.w3.org/1999/xlink" style="isolation:isolate" viewBox="0 0 200 200" width="200pt" height="200pt"><defs><clipPath id="_clipPath_R8k1KGORj4LgmsVvv4Ib4H1Tso9R3SsW"><rect width="200" height="200"/></clipPath></defs><g clip-path="url(#_clipPath_R8k1KGORj4LgmsVvv4Ib4H1Tso9R3SsW)"><path d=" M 159.949 154.111 C 176.787 153.005 190 142.7 190 130.168 C 190 122.709 185.318 116.038 177.972 111.63 C 177.743 100.255 169.755 91.103 159.949 91.103 C 157.817 91.103 155.77 91.536 153.874 92.34 C 153.089 79.894 143.993 70.067 132.904 70.067 C 123.011 70.067 114.704 77.89 112.467 88.414 C 111.298 88.203 110.093 88.098 108.864 88.098 C 97.254 88.098 87.828 97.523 87.828 109.133 C 87.828 111.317 88.162 113.425 88.797 115.399 C 84.425 119.476 81.818 124.603 81.818 130.168 C 81.818 142.7 95.031 153.005 111.869 154.111 L 111.869 154.209 L 114.874 154.209 L 114.874 154.209 L 156.944 154.209 L 156.944 154.209 L 159.949 154.209 L 159.949 154.111 Z " fill="rgb(250,250,250)"/><path d=" M 115.478 75.832 C 113.585 72.617 110.656 69.8 106.997 67.605 C 106.789 57.312 99.562 49.032 90.69 49.032 C 88.76 49.032 86.908 49.424 85.193 50.152 C 84.483 38.891 76.253 30 66.221 30 C 57.27 30 49.753 37.077 47.73 46.6 C 46.672 46.409 45.582 46.313 44.47 46.313 C 33.966 46.313 25.438 54.841 25.438 65.345 C 25.438 67.322 25.74 69.228 26.314 71.015 C 22.358 74.703 20 79.341 20 84.377 C 20 95.715 31.954 105.039 47.189 106.039 L 47.189 106.128 L 49.907 106.128 L 49.907 106.128 L 84.257 106.128 C 85.625 94.92 95.185 86.228 106.76 86.228 Q 108.085 86.228 110.643 86.569 Q 113.183 78.876 115.478 75.832 L 115.478 75.832 Q 116.41 75.428 115.478 75.832 Z " fill="rgb(250,250,250)"/><path d=" M 31.945 112.87 L 31.945 112.87 C 32.921 113.845 32.921 115.43 31.945 116.405 L 14.267 134.083 C 13.292 135.059 11.707 135.059 10.732 134.083 L 10.732 134.083 C 9.756 133.107 9.756 131.523 10.732 130.547 L 28.409 112.87 C 29.385 111.894 30.969 111.894 31.945 112.87 L 31.945 112.87 L 31.945 112.87 L 31.945 112.87 L 31.945 112.87 L 31.945 112.87 L 31.945 112.87 L 31.945 112.87 Z  M 61.945 120.732 L 61.945 120.732 C 62.921 121.707 62.921 123.292 61.945 124.267 L 44.267 141.945 C 43.292 142.921 41.707 142.921 40.732 141.945 L 40.732 141.945 C 39.756 140.969 39.756 139.385 40.732 138.409 L 58.409 120.732 C 59.385 119.756 60.969 119.756 61.945 120.732 L 61.945 120.732 L 61.945 120.732 L 61.945 120.732 L 61.945 120.732 L 61.945 120.732 L 61.945 120.732 L 61.945 120.732 Z  M 78.579 138.055 L 78.579 138.055 C 79.554 139.031 79.554 140.615 78.579 141.591 L 60.901 159.268 C 59.925 160.244 58.341 160.244 57.365 159.268 L 57.365 159.268 C 56.39 158.293 56.39 156.708 57.365 155.733 L 75.043 138.055 C 76.019 137.079 77.603 137.079 78.579 138.055 L 78.579 138.055 L 78.579 138.055 L 78.579 138.055 L 78.579 138.055 L 78.579 138.055 L 78.579 138.055 Z  M 79.268 168.055 L 79.268 168.055 C 80.244 169.031 80.244 170.615 79.268 171.591 L 61.591 189.268 C 60.615 190.244 59.031 190.244 58.055 189.268 L 58.055 189.268 C 57.079 188.293 57.079 186.708 58.055 185.733 L 75.733 168.055 C 76.708 167.079 78.293 167.079 79.268 168.055 L 79.268 168.055 L 79.268 168.055 L 79.268 168.055 L 79.268 168.055 L 79.268 168.055 Z  M 43.283 173.408 L 43.283 173.408 C 44.259 174.384 44.259 175.968 43.283 176.944 L 25.606 194.622 C 24.63 195.597 23.046 195.597 22.07 194.622 L 22.07 194.622 C 21.094 193.646 21.094 192.062 22.07 191.086 L 39.748 173.408 C 40.723 172.433 42.308 172.433 43.283 173.408 L 43.283 173.408 L 43.283 173.408 L 43.283 173.408 L 43.283 173.408 Z  M 30.607 150.732 L 30.607 150.732 C 31.582 151.707 31.582 153.292 30.607 154.267 L 12.929 171.945 C 11.953 172.921 10.369 172.921 9.393 171.945 L 9.393 171.945 C 8.418 170.969 8.418 169.385 9.393 168.409 L 27.071 150.732 C 28.047 149.756 29.631 149.756 30.607 150.732 L 30.607 150.732 L 30.607 150.732 L 30.607 150.732 Z  M 115.212 160.732 L 115.212 160.732 C 116.188 161.707 116.188 163.292 115.212 164.267 L 97.535 181.945 C 96.559 182.921 94.975 182.921 93.999 181.945 L 93.999 181.945 C 93.023 180.969 93.023 179.385 93.999 178.409 L 111.677 160.732 C 112.652 159.756 114.237 159.756 115.212 160.732 L 115.212 160.732 L 115.212 160.732 Z  M 171.945 160.732 L 171.945 160.732 C 172.921 161.707 172.921 163.292 171.945 164.267 L 154.267 181.945 C 153.292 182.921 151.707 182.921 150.732 181.945 L 150.732 181.945 C 149.756 180.969 149.756 179.385 150.732 178.409 L 168.409 160.732 C 169.385 159.756 170.969 159.756 171.945 160.732 L 171.945 160.732 Z  M 135.177 173.408 L 135.177 173.408 C 136.153 174.384 136.153 175.968 135.177 176.944 L 117.5 194.622 C 116.524 195.597 114.94 195.597 113.964 194.622 L 113.964 194.622 C 112.988 193.646 112.988 192.062 113.964 191.086 L 131.642 173.408 C 132.617 172.433 134.202 172.433 135.177 173.408 Z " fill-rule="evenodd" fill="rgb(150,150,150)"/></g></svg>