<?xml version="1.0" encoding="UTF-8" standalone="no"?><!-- Generator: Gravit.io --><svg xmlns="http://www.w3.org/2000/svg" xmlns:xlink="http://www.w3.org/1999/xlink" style="isolation:isolate" viewBox="0 0 200 200" width="200pt" height="200pt"><defs><clipPath id="_clipPath_GV6FP2Hca7hEo0Bvhj8rHkKYXKF2blvP"><rect width="200" height="200"/></clipPath></defs><g clip-path="url(#_clipPath_GV6FP2Hca7hEo0Bvhj8rHkKYXKF2blvP)"><path d=" M 131.497 154.913 C 144.249 154.076 154.256 146.271 154.256 136.78 C 154.256 131.131 150.71 126.079 145.146 122.741 C 144.973 114.125 138.923 107.194 131.497 107.194 C 129.881 107.194 128.331 107.522 126.895 108.131 C 126.301 98.705 119.412 91.262 111.014 91.262 C 103.521 91.262 97.229 97.187 95.535 105.158 C 94.65 104.998 93.737 104.918 92.806 104.918 C 84.014 104.918 76.875 112.056 76.875 120.849 C 76.875 122.504 77.128 124.099 77.609 125.595 C 74.297 128.682 72.323 132.565 72.323 136.78 C 72.323 146.271 82.33 154.076 95.082 154.913 L 95.082 154.988 L 97.358 154.988 L 97.358 154.988 L 129.221 154.988 L 129.221 154.988 L 131.497 154.988 L 131.497 154.913 Z " fill="rgb(250,250,250)"/><path d=" M 97.816 95.629 C 96.382 93.194 94.164 91.06 91.392 89.397 C 91.235 81.602 85.762 75.331 79.042 75.331 C 77.581 75.331 76.178 75.628 74.879 76.179 C 74.341 67.651 68.108 60.917 60.51 60.917 C 53.731 60.917 48.039 66.277 46.506 73.489 C 45.705 73.344 44.879 73.272 44.037 73.272 C 36.082 73.272 29.623 79.731 29.623 87.686 C 29.623 89.183 29.852 90.627 30.287 91.98 C 27.291 94.773 25.505 98.286 25.505 102.1 C 25.505 110.687 34.558 117.748 46.096 118.506 L 46.096 118.573 L 48.155 118.573 L 48.155 118.573 L 74.17 118.573 C 75.206 110.085 82.447 103.502 91.213 103.502 Q 92.217 103.502 94.154 103.76 Q 96.077 97.934 97.816 95.629 L 97.816 95.629 Q 98.522 95.322 97.816 95.629 Z " fill="rgb(250,250,250)"/><path d=" M 64.987 58.589 C 74.944 45.266 90.841 36.641 108.738 36.641 C 138.884 36.641 163.359 61.116 163.359 91.262 C 163.359 104.193 158.856 116.08 151.33 125.436 L 151.33 125.436 C 150.23 124.436 148.983 123.526 147.624 122.711 C 147.437 113.425 140.917 105.955 132.913 105.955 C 131.172 105.955 129.501 106.308 127.953 106.965 C 127.313 96.806 119.888 88.784 110.836 88.784 C 106.585 88.784 102.692 90.554 99.691 93.484 C 98.309 91.903 96.584 90.498 94.604 89.31 C 94.43 80.694 88.381 73.763 80.954 73.763 C 79.339 73.763 77.789 74.091 76.353 74.701 C 75.87 67.037 71.225 60.684 64.987 58.589 Z  M 63.29 121.557 C 65.514 124.885 68.093 127.956 70.973 130.715 C 71.932 128.931 73.239 127.274 74.833 125.787 C 74.401 124.444 74.14 123.025 74.065 121.557 L 63.29 121.557 Z  M 53.347 59.749 C 64.323 40.515 85.026 27.537 108.738 27.537 C 143.909 27.537 172.463 56.091 172.463 91.262 C 172.463 107.335 166.5 122.025 156.666 133.239 L 156.666 133.239 C 157.076 134.392 157.319 135.593 157.399 136.824 C 158.316 136.117 159.358 135.614 160.417 135.406 L 194.407 128.731 C 197.369 128.149 198.358 125.676 196.614 123.212 L 176.604 94.938 C 174.861 92.474 174.812 88.439 176.495 85.933 L 195.809 57.179 C 197.492 54.673 196.443 52.226 193.468 51.716 L 159.326 45.872 C 156.35 45.363 153.463 42.545 152.881 39.583 L 146.206 5.593 C 145.624 2.631 143.152 1.642 140.688 3.386 L 112.413 23.396 C 109.949 25.139 105.914 25.188 103.408 23.505 L 74.654 4.191 C 72.149 2.508 69.701 3.557 69.192 6.532 L 63.347 40.674 C 62.838 43.65 60.02 46.537 57.058 47.119 L 23.068 53.794 L 23.068 53.794 L 23.068 53.794 C 20.106 54.376 19.117 56.848 20.861 59.312 L 32.082 75.169 C 34.844 72.87 38.394 71.487 42.264 71.487 C 43.195 71.487 44.108 71.567 44.993 71.727 C 46.108 66.479 49.216 62.118 53.347 59.749 Z  M 52.67 121.557 C 56.894 129.351 62.696 136.168 69.646 141.577 C 71.879 150.057 81.64 156.596 93.666 157.386 L 93.666 157.466 L 96.119 157.466 L 96.119 157.466 L 130.46 157.466 L 130.46 157.466 L 132.913 157.466 L 132.913 157.386 C 141.281 156.836 148.553 153.503 152.96 148.671 L 148.284 175.993 C 147.774 178.968 145.327 180.017 142.821 178.334 L 114.067 159.019 C 111.561 157.336 107.526 157.386 105.062 159.129 L 76.788 179.139 C 74.324 180.883 71.851 179.894 71.269 176.932 L 64.594 142.942 C 64.013 139.98 61.125 137.162 58.15 136.653 L 24.007 130.808 C 21.032 130.299 19.983 127.851 21.666 125.346 L 28.243 115.554 C 32.349 118.856 38.093 121.06 44.54 121.483 L 44.54 121.557 L 46.816 121.557 L 46.816 121.557 L 52.67 121.557 Z " fill-rule="evenodd" fill="rgb(150,150,150)"/><path d=" M 24.467 139.361 L 24.467 139.361 C 25.129 140.023 25.129 141.099 24.467 141.761 L 12.467 153.761 C 11.805 154.424 10.729 154.424 10.067 153.761 L 10.067 153.761 C 9.405 153.099 9.405 152.023 10.067 151.361 L 22.067 139.361 C 22.729 138.699 23.805 138.699 24.467 139.361 L 24.467 139.361 L 24.467 139.361 L 24.467 139.361 L 24.467 139.361 L 24.467 139.361 L 24.467 139.361 L 24.467 139.361 Z  M 44.832 144.698 L 44.832 144.698 C 45.494 145.36 45.494 146.436 44.832 147.098 L 32.832 159.098 C 32.17 159.76 31.094 159.76 30.432 159.098 L 30.432 159.098 C 29.769 158.436 29.769 157.36 30.432 156.698 L 42.432 144.698 C 43.094 144.036 44.17 144.036 44.832 144.698 L 44.832 144.698 L 44.832 144.698 L 44.832 144.698 L 44.832 144.698 L 44.832 144.698 L 44.832 144.698 L 44.832 144.698 Z  M 56.123 156.458 L 56.123 156.458 C 56.786 157.12 56.786 158.195 56.123 158.858 L 44.123 170.858 C 43.461 171.52 42.386 171.52 41.723 170.858 L 41.723 170.858 C 41.061 170.195 41.061 169.12 41.723 168.458 L 53.723 156.458 C 54.386 155.795 55.461 155.795 56.123 156.458 L 56.123 156.458 L 56.123 156.458 L 56.123 156.458 L 56.123 156.458 L 56.123 156.458 L 56.123 156.458 Z  M 56.592 176.822 L 56.592 176.822 C 57.254 177.485 57.254 178.56 56.592 179.222 L 44.591 191.223 C 43.929 191.885 42.854 191.885 42.191 191.223 L 42.191 191.223 C 41.529 190.56 41.529 189.485 42.191 188.823 L 54.192 176.822 C 54.854 176.16 55.929 176.16 56.592 176.822 L 56.592 176.822 L 56.592 176.822 L 56.592 176.822 L 56.592 176.822 L 56.592 176.822 Z  M 32.164 180.456 L 32.164 180.456 C 32.826 181.119 32.826 182.194 32.164 182.857 L 20.164 194.857 C 19.501 195.519 18.426 195.519 17.764 194.857 L 17.764 194.857 C 17.101 194.194 17.101 193.119 17.764 192.457 L 29.764 180.456 C 30.426 179.794 31.502 179.794 32.164 180.456 L 32.164 180.456 L 32.164 180.456 L 32.164 180.456 L 32.164 180.456 Z  M 23.559 165.063 L 23.559 165.063 C 24.221 165.725 24.221 166.801 23.559 167.463 L 11.558 179.463 C 10.896 180.125 9.821 180.125 9.158 179.463 L 9.158 179.463 C 8.496 178.801 8.496 177.725 9.158 177.063 L 21.159 165.063 C 21.821 164.401 22.896 164.401 23.559 165.063 L 23.559 165.063 L 23.559 165.063 L 23.559 165.063 Z  M 80.991 171.851 L 80.991 171.851 C 81.654 172.513 81.654 173.589 80.991 174.251 L 68.991 186.251 C 68.329 186.914 67.254 186.914 66.591 186.251 L 66.591 186.251 C 65.929 185.589 65.929 184.514 66.591 183.851 L 78.591 171.851 C 79.254 171.189 80.329 171.189 80.991 171.851 L 80.991 171.851 L 80.991 171.851 Z  M 119.503 171.851 L 119.503 171.851 C 120.166 172.513 120.166 173.589 119.503 174.251 L 107.503 186.251 C 106.841 186.914 105.765 186.914 105.103 186.251 L 105.103 186.251 C 104.441 185.589 104.441 184.514 105.103 183.851 L 117.103 171.851 C 117.766 171.189 118.841 171.189 119.503 171.851 L 119.503 171.851 Z  M 94.544 180.456 L 94.544 180.456 C 95.207 181.119 95.207 182.194 94.544 182.857 L 82.544 194.857 C 81.882 195.519 80.806 195.519 80.144 194.857 L 80.144 194.857 C 79.482 194.194 79.482 193.119 80.144 192.457 L 92.144 180.456 C 92.807 179.794 93.882 179.794 94.544 180.456 Z " fill-rule="evenodd" fill="rgb(150,150,150)"/></g></svg>