<?xml version="1.0" encoding="UTF-8" standalone="no"?><!-- Generator: Gravit.io --><svg xmlns="http://www.w3.org/2000/svg" xmlns:xlink="http://www.w3.org/1999/xlink" style="isolation:isolate" viewBox="0 0 200 200" width="200pt" height="200pt"><defs><clipPath id="_clipPath_wuwyomDF0MEQD74m1HfVXIroUmmwtIyM"><rect width="200" height="200"/></clipPath></defs><g clip-path="url(#_clipPath_wuwyomDF0MEQD74m1HfVXIroUmmwtIyM)"><path d=" M 144.986 156.218 C 158.994 155.298 169.986 146.725 169.986 136.3 C 169.986 130.094 166.091 124.544 159.98 120.878 C 159.789 111.414 153.144 103.8 144.986 103.8 C 143.212 103.8 141.509 104.16 139.932 104.83 C 139.279 94.475 131.711 86.3 122.486 86.3 C 114.256 86.3 107.345 92.808 105.484 101.563 C 104.511 101.388 103.509 101.3 102.486 101.3 C 92.828 101.3 84.986 109.141 84.986 118.8 C 84.986 120.617 85.264 122.37 85.792 124.013 C 82.154 127.405 79.986 131.67 79.986 136.3 C 79.986 146.725 90.978 155.298 104.986 156.218 L 104.986 156.3 L 107.486 156.3 L 107.486 156.3 L 142.486 156.3 L 142.486 156.3 L 144.986 156.3 L 144.986 156.218 Z " fill="rgb(250,250,250)"/><path d=" M 107.989 91.096 C 106.414 88.421 103.977 86.078 100.933 84.251 C 100.76 75.689 94.748 68.8 87.367 68.8 C 85.762 68.8 84.221 69.126 82.794 69.732 C 82.203 60.363 75.356 52.967 67.01 52.967 C 59.563 52.967 53.31 58.855 51.627 66.776 C 50.747 66.618 49.84 66.538 48.915 66.538 C 40.176 66.538 33.081 73.633 33.081 82.371 C 33.081 84.016 33.333 85.602 33.81 87.088 C 30.519 90.157 28.558 94.015 28.558 98.205 C 28.558 107.637 38.503 115.394 51.177 116.226 L 51.177 116.3 L 53.438 116.3 L 53.438 116.3 L 82.015 116.3 C 83.153 106.976 91.107 99.744 100.736 99.744 Q 101.838 99.744 103.967 100.028 Q 106.079 93.628 107.989 91.096 L 107.989 91.096 Q 108.764 90.76 107.989 91.096 Z " fill="rgb(250,250,250)"/><path d=" M 47.108 119.334 C 59.697 147.024 87.608 166.3 119.986 166.3 C 134.639 166.3 148.378 162.352 160.182 155.444 L 160.182 155.444 C 156.206 157.367 151.553 158.605 146.542 158.934 L 146.542 159.022 L 143.847 159.022 L 143.847 159.022 L 106.125 159.022 L 106.125 159.022 L 103.431 159.022 L 103.431 158.934 C 88.333 157.943 76.486 148.703 76.486 137.467 C 76.486 132.476 78.823 127.879 82.743 124.224 C 82.274 122.765 81.989 121.226 81.903 119.633 L 51.772 119.633 L 51.772 119.633 L 49.272 119.633 L 49.272 119.552 C 48.54 119.504 47.817 119.435 47.108 119.334 Z  M 42.832 65.089 C 50.02 38.928 70.171 18.111 95.938 10 C 92.099 19.69 89.986 30.25 89.986 41.3 C 89.986 50.683 91.51 59.713 94.333 68.15 C 92.75 67.494 91.047 67.133 89.272 67.133 C 87.497 67.133 85.794 67.494 84.217 68.163 C 83.564 57.809 75.997 49.633 66.772 49.633 C 58.541 49.633 51.63 56.141 49.769 64.897 C 48.797 64.721 47.795 64.633 46.772 64.633 C 45.416 64.633 44.096 64.788 42.832 65.089 Z  M 166.614 151.27 C 176.229 144.375 184.241 135.389 190 124.984 C 185.124 125.846 180.108 126.3 174.986 126.3 C 172.968 126.3 170.966 126.229 168.984 126.088 C 171.846 129.381 173.486 133.286 173.486 137.467 C 173.486 142.715 170.902 147.527 166.614 151.27 L 166.614 151.27 Z " fill-rule="evenodd" fill="rgb(150,150,150)"/><path d=" M 28.603 128.552 L 28.603 128.552 C 29.266 129.214 29.266 130.29 28.603 130.952 L 16.603 142.952 C 15.941 143.615 14.865 143.615 14.203 142.952 L 14.203 142.952 C 13.541 142.29 13.541 141.215 14.203 140.552 L 26.203 128.552 C 26.866 127.89 27.941 127.89 28.603 128.552 L 28.603 128.552 L 28.603 128.552 L 28.603 128.552 L 28.603 128.552 L 28.603 128.552 L 28.603 128.552 L 28.603 128.552 Z  M 48.968 133.889 L 48.968 133.889 C 49.63 134.551 49.63 135.627 48.968 136.289 L 36.968 148.289 C 36.306 148.952 35.23 148.952 34.568 148.289 L 34.568 148.289 C 33.906 147.627 33.906 146.552 34.568 145.889 L 46.568 133.889 C 47.23 133.227 48.306 133.227 48.968 133.889 L 48.968 133.889 L 48.968 133.889 L 48.968 133.889 L 48.968 133.889 L 48.968 133.889 L 48.968 133.889 L 48.968 133.889 Z  M 60.26 145.649 L 60.26 145.649 C 60.922 146.311 60.922 147.386 60.26 148.049 L 48.26 160.049 C 47.597 160.711 46.522 160.711 45.859 160.049 L 45.859 160.049 C 45.197 159.387 45.197 158.311 45.859 157.649 L 57.86 145.649 C 58.522 144.986 59.597 144.986 60.26 145.649 L 60.26 145.649 L 60.26 145.649 L 60.26 145.649 L 60.26 145.649 L 60.26 145.649 L 60.26 145.649 Z  M 60.728 166.014 L 60.728 166.014 C 61.39 166.676 61.39 167.751 60.728 168.414 L 48.728 180.414 C 48.065 181.076 46.99 181.076 46.328 180.414 L 46.328 180.414 C 45.665 179.751 45.665 178.676 46.328 178.014 L 58.328 166.014 C 58.99 165.351 60.065 165.351 60.728 166.014 L 60.728 166.014 L 60.728 166.014 L 60.728 166.014 L 60.728 166.014 L 60.728 166.014 Z  M 36.3 169.648 L 36.3 169.648 C 36.962 170.31 36.962 171.385 36.3 172.048 L 24.3 184.048 C 23.638 184.71 22.562 184.71 21.9 184.048 L 21.9 184.048 C 21.238 183.385 21.238 182.31 21.9 181.648 L 33.9 169.648 C 34.562 168.985 35.638 168.985 36.3 169.648 L 36.3 169.648 L 36.3 169.648 L 36.3 169.648 L 36.3 169.648 Z  M 27.695 154.254 L 27.695 154.254 C 28.357 154.916 28.357 155.992 27.695 156.654 L 15.695 168.654 C 15.032 169.316 13.957 169.316 13.295 168.654 L 13.295 168.654 C 12.632 167.992 12.632 166.916 13.295 166.254 L 25.295 154.254 C 25.957 153.592 27.032 153.592 27.695 154.254 L 27.695 154.254 L 27.695 154.254 L 27.695 154.254 Z  M 85.128 161.042 L 85.128 161.042 C 85.79 161.705 85.79 162.78 85.128 163.442 L 73.128 175.442 C 72.465 176.105 71.39 176.105 70.728 175.442 L 70.728 175.442 C 70.065 174.78 70.065 173.705 70.728 173.042 L 82.728 161.042 C 83.39 160.38 84.465 160.38 85.128 161.042 L 85.128 161.042 L 85.128 161.042 Z  M 123.639 161.042 L 123.639 161.042 C 124.302 161.705 124.302 162.78 123.639 163.442 L 111.639 175.442 C 110.977 176.105 109.902 176.105 109.239 175.442 L 109.239 175.442 C 108.577 174.78 108.577 173.705 109.239 173.042 L 121.239 161.042 C 121.902 160.38 122.977 160.38 123.639 161.042 L 123.639 161.042 Z  M 98.681 169.648 L 98.681 169.648 C 99.343 170.31 99.343 171.385 98.681 172.048 L 86.68 184.048 C 86.018 184.71 84.943 184.71 84.28 184.048 L 84.28 184.048 C 83.618 183.385 83.618 182.31 84.28 181.648 L 96.281 169.648 C 96.943 168.985 98.018 168.985 98.681 169.648 Z " fill-rule="evenodd" fill="rgb(150,150,150)"/></g></svg>