<?xml version="1.0" encoding="UTF-8" standalone="no"?><!-- Generator: Gravit.io --><svg xmlns="http://www.w3.org/2000/svg" xmlns:xlink="http://www.w3.org/1999/xlink" style="isolation:isolate" viewBox="0 0 200 200" width="200pt" height="200pt"><defs><clipPath id="_clipPath_ocQ4KurWPDkEDAL48krX7rFKZBeXL6l2"><rect width="200" height="200"/></clipPath></defs><g clip-path="url(#_clipPath_ocQ4KurWPDkEDAL48krX7rFKZBeXL6l2)"><path d=" M 66.117 125.413 C 65.121 124.171 64.177 122.885 63.29 121.557 L 63.29 121.557 L 74.065 121.557 C 74.133 122.889 74.355 124.181 74.718 125.413 L 66.117 125.413 Z  M 58.365 130.28 C 56.24 127.542 54.333 124.625 52.67 121.557 L 52.67 121.557 L 50.957 121.557 L 39.119 133.395 L 56.443 136.361 L 58.365 130.28 Z  M 79.349 153.21 C 83.214 155.447 87.943 156.927 93.111 157.345 L 88.163 171.089 L 76.788 179.139 C 74.324 180.883 71.851 179.894 71.269 176.932 L 68.694 163.817 L 79.349 153.21 Z  M 110.044 157.466 L 130.46 157.466 L 130.46 157.466 L 132.913 157.466 L 132.913 157.386 C 141.281 156.836 148.553 153.503 152.96 148.671 L 148.284 175.993 C 147.774 178.968 145.327 180.017 142.821 178.334 L 114.067 159.019 C 112.902 158.237 111.406 157.829 109.892 157.791 L 110.044 157.466 Z  M 36.661 132.974 L 24.007 130.808 C 21.032 130.299 19.983 127.851 21.666 125.346 L 28.243 115.554 C 32.019 118.591 37.181 120.698 43 121.347 L 36.661 132.974 Z  M 64.987 58.589 C 74.944 45.266 90.841 36.641 108.738 36.641 C 138.884 36.641 163.359 61.116 163.359 91.262 C 163.359 104.193 158.856 116.08 151.33 125.436 L 151.33 125.436 C 150.23 124.436 148.983 123.526 147.624 122.711 C 147.437 113.425 140.917 105.955 132.913 105.955 C 131.172 105.955 129.501 106.308 127.953 106.965 C 127.313 96.806 119.888 88.784 110.836 88.784 C 106.585 88.784 102.692 90.554 99.691 93.484 C 98.309 91.903 96.584 90.498 94.604 89.31 C 94.43 80.694 88.381 73.763 80.954 73.763 C 79.339 73.763 77.789 74.091 76.353 74.701 C 75.87 67.037 71.225 60.684 64.987 58.589 L 64.987 58.589 Z  M 53.347 59.749 C 64.323 40.515 85.026 27.537 108.738 27.537 C 143.909 27.537 172.463 56.091 172.463 91.262 C 172.463 107.335 166.5 122.025 156.666 133.239 L 156.666 133.239 C 157.076 134.392 157.319 135.593 157.399 136.824 C 158.316 136.117 159.358 135.614 160.417 135.406 L 194.407 128.731 C 197.369 128.149 198.358 125.676 196.614 123.212 L 176.604 94.938 C 174.861 92.474 174.812 88.439 176.495 85.933 L 195.809 57.179 C 197.492 54.673 196.443 52.226 193.468 51.716 L 159.326 45.872 C 156.35 45.363 153.463 42.545 152.881 39.583 L 146.206 5.593 C 145.624 2.631 143.152 1.642 140.688 3.386 L 112.413 23.396 C 109.949 25.139 105.914 25.188 103.408 23.505 L 74.654 4.191 C 72.149 2.508 69.701 3.557 69.192 6.532 L 63.347 40.674 C 62.838 43.65 60.02 46.537 57.058 47.119 L 23.068 53.794 L 23.068 53.794 L 23.068 53.794 C 20.106 54.376 19.117 56.848 20.861 59.312 L 32.082 75.169 C 34.844 72.87 38.394 71.487 42.264 71.487 C 43.195 71.487 44.108 71.567 44.993 71.727 C 46.108 66.479 49.216 62.118 53.347 59.749 L 53.347 59.749 Z " fill-rule="evenodd" fill="rgb(150,150,150)"/><path d=" M 90 172.044 L 97.348 172.044 L 90 186.74 L 112.044 164.696 L 104.696 164.696 L 112.044 150 L 97.348 150 L 90 172.044 L 90 172.044 Z  M 50.815 158.965 L 61.332 158.965 L 50.815 180 L 82.367 148.448 L 71.85 148.448 L 82.367 127.413 L 61.332 127.413 L 50.815 158.965 L 50.815 158.965 Z  M 39.793 115.304 L 47.141 115.304 L 39.793 130 L 61.837 107.956 L 54.489 107.956 L 61.837 93.26 L 47.141 93.26 L 39.793 115.304 Z " fill-rule="evenodd" fill="rgb(150,150,150)"/><path d=" M 77.551 125.413 C 77.108 123.97 76.875 122.437 76.875 120.849 C 76.875 112.056 84.014 104.918 92.806 104.918 C 93.737 104.918 94.65 104.998 95.535 105.158 C 97.229 97.187 103.521 91.262 111.014 91.262 C 119.412 91.262 126.301 98.705 126.895 108.131 C 128.331 107.522 129.881 107.194 131.497 107.194 C 138.923 107.194 144.973 114.125 145.146 122.741 C 150.71 126.079 154.256 131.131 154.256 136.78 C 154.256 146.271 144.249 154.076 131.497 154.913 L 131.497 154.913 L 131.497 154.988 L 129.221 154.988 L 129.221 154.988 L 111.2 154.988 L 114.522 147.87 L 96.522 147.87 L 94.017 154.827 C 89.362 154.374 85.11 152.99 81.628 150.941 L 85.263 147.323 L 76.95 147.323 C 76.313 146.673 75.734 145.991 75.218 145.282 L 86.263 125.413 L 77.551 125.413 Z  M 37.413 116.604 C 30.325 113.819 25.505 108.366 25.505 102.1 C 25.505 98.286 27.291 94.773 30.287 91.98 C 29.852 90.627 29.623 89.183 29.623 87.686 C 29.623 79.731 36.082 73.272 44.037 73.272 C 44.879 73.272 45.705 73.344 46.506 73.489 C 48.039 66.277 53.731 60.917 60.51 60.917 C 68.108 60.917 74.341 67.651 74.879 76.179 C 76.178 75.628 77.581 75.331 79.042 75.331 C 85.762 75.331 91.235 81.602 91.392 89.397 C 94.164 91.06 96.382 93.194 97.816 95.629 L 97.816 95.629 Q 98.522 95.322 97.816 95.629 L 97.816 95.629 Q 96.077 97.934 94.154 103.76 Q 92.217 103.502 91.213 103.502 C 82.447 103.502 75.206 110.085 74.17 118.573 L 53.941 118.573 L 66.418 106.096 L 56.349 106.096 L 64.418 91.958 L 46.28 91.958 L 37.413 116.604 Z  M 38.983 117.165 C 40.755 117.737 42.646 118.148 44.621 118.374 L 45.28 117.165 L 38.983 117.165 Z " fill-rule="evenodd" fill="rgb(250,250,250)"/></g></svg>