<?xml version="1.0" encoding="UTF-8" standalone="no"?><!-- Generator: Gravit.io --><svg xmlns="http://www.w3.org/2000/svg" xmlns:xlink="http://www.w3.org/1999/xlink" style="isolation:isolate" viewBox="0 0 200 200" width="200pt" height="200pt"><defs><clipPath id="_clipPath_s8EO8KjMFvPZ6oEoPsuj9j00I38eitjt"><rect width="200" height="200"/></clipPath></defs><g clip-path="url(#_clipPath_s8EO8KjMFvPZ6oEoPsuj9j00I38eitjt)"><path d=" M 103.478 174.174 L 110.826 174.174 L 103.478 188.87 L 125.522 166.826 L 118.174 166.826 L 125.522 152.13 L 110.826 152.13 L 103.478 174.174 L 103.478 174.174 Z  M 54.552 160.415 L 65.069 160.415 L 54.552 181.45 L 86.104 149.898 L 75.586 149.898 L 86.104 128.863 L 65.069 128.863 L 54.552 160.415 L 54.552 160.415 Z  M 36.582 122.434 L 43.93 122.434 L 36.582 137.13 L 58.625 115.086 L 51.278 115.086 L 58.625 100.391 L 43.93 100.391 L 36.582 122.434 Z " fill-rule="evenodd" fill="rgb(150,150,150)"/><path d=" M 84.222 126.863 C 84.83 126.114 85.502 125.396 86.234 124.713 C 85.706 123.07 85.429 121.317 85.429 119.5 C 85.429 109.841 93.27 102 102.929 102 C 103.951 102 104.954 102.088 105.926 102.263 C 107.787 93.508 114.698 87 122.929 87 C 132.154 87 139.721 95.175 140.374 105.53 C 141.951 104.86 143.654 104.5 145.429 104.5 C 153.586 104.5 160.232 112.114 160.422 121.578 C 166.534 125.244 170.429 130.794 170.429 137 C 170.429 147.425 159.437 155.998 145.429 156.918 L 145.429 156.918 L 145.429 157 L 142.929 157 L 142.929 157 L 124.733 157 L 128 150 L 110 150 L 107.48 157 L 105.429 157 L 105.429 156.918 C 98.299 156.45 91.95 153.999 87.435 150.331 L 89 148.773 L 85.701 148.773 C 83.772 146.85 82.303 144.668 81.411 142.313 L 90 126.863 L 84.222 126.863 Z  M 38.102 112.892 C 32.546 109.572 29 104.537 29 98.905 C 29 94.715 30.962 90.857 34.253 87.788 C 33.775 86.302 33.524 84.716 33.524 83.071 C 33.524 74.333 40.618 67.238 49.357 67.238 C 50.283 67.238 51.189 67.318 52.069 67.476 C 53.753 59.555 60.006 53.667 67.452 53.667 C 75.799 53.667 82.646 61.063 83.236 70.432 C 84.663 69.826 86.204 69.5 87.81 69.5 C 95.19 69.5 101.203 76.389 101.375 84.951 C 104.42 86.778 106.857 89.121 108.431 91.796 L 108.431 91.796 Q 109.207 91.46 108.431 91.796 L 108.431 91.796 Q 106.522 94.328 104.409 100.728 Q 102.281 100.444 101.179 100.444 C 91.549 100.444 83.596 107.676 82.457 117 L 59.433 117 L 63.207 113.226 L 53.138 113.226 L 61.207 99.088 L 43.069 99.088 L 38.102 112.892 Z " fill-rule="evenodd" fill="rgb(250,250,250)"/><path d=" M 50.522 125.911 C 53.158 130.633 56.259 135.06 59.763 139.132 L 63.641 126.863 L 81.331 126.863 C 81.901 126.192 82.521 125.544 83.186 124.924 C 82.717 123.465 82.431 121.926 82.345 120.333 L 56.1 120.333 L 56.1 120.333 L 50.522 125.911 Z  M 81.08 156.657 C 88.256 160.722 96.122 163.711 104.455 165.402 L 106.5 159.722 L 103.873 159.722 L 103.873 159.634 C 96.403 159.144 89.729 156.634 84.892 152.862 L 81.08 156.657 Z  M 128.333 166.614 C 140.019 165.465 150.969 161.795 160.624 156.144 L 160.624 156.144 C 156.649 158.067 151.995 159.305 146.984 159.634 L 146.984 159.722 L 144.29 159.722 L 144.29 159.722 L 123.463 159.722 L 121 165 L 130 165 L 128.333 166.614 Z  M 80.764 148.773 C 80.162 148.001 79.624 147.199 79.155 146.372 L 77.821 148.773 L 80.764 148.773 Z  M 43.274 65.789 C 50.462 39.628 70.614 18.812 96.381 10.7 C 92.542 20.39 90.429 30.95 90.429 42 C 90.429 51.383 91.952 60.413 94.775 68.85 C 93.193 68.194 91.489 67.833 89.714 67.833 C 87.94 67.833 86.237 68.194 84.66 68.863 C 84.007 58.509 76.439 50.333 67.214 50.333 C 58.984 50.333 52.073 56.841 50.212 65.597 C 49.239 65.421 48.237 65.333 47.214 65.333 C 45.859 65.333 44.539 65.488 43.274 65.789 L 43.274 65.789 Z  M 167.057 151.97 C 176.672 145.075 184.683 136.089 190.442 125.684 C 185.567 126.546 180.55 127 175.429 127 C 173.41 127 171.409 126.93 169.426 126.788 C 172.288 130.081 173.929 133.986 173.929 138.167 C 173.929 143.415 171.344 148.227 167.057 151.97 L 167.057 151.97 L 167.057 151.97 Z " fill-rule="evenodd" fill="rgb(150,150,150)"/></g></svg>