<?xml version="1.0" encoding="UTF-8" standalone="no"?><!-- Generator: Gravit.io --><svg xmlns="http://www.w3.org/2000/svg" xmlns:xlink="http://www.w3.org/1999/xlink" style="isolation:isolate" viewBox="0 0 200 200" width="200pt" height="200pt"><defs><clipPath id="_clipPath_c0trDx9zdSCVqhBYbphZOqFRqFCR9BCC"><rect width="200" height="200"/></clipPath></defs><g clip-path="url(#_clipPath_c0trDx9zdSCVqhBYbphZOqFRqFCR9BCC)"><path d=" M 124.142 90 L 140 90 L 151.213 78.787 L 135.355 78.787 L 124.142 90 Z  M 170 71.005 L 170 80 L 160 90 L 180 90 L 190 100 L 180 110 L 160 110 L 170 120 L 170 128.995 L 163.64 135.355 L 149.497 135.355 L 149.497 135.355 L 163.64 149.497 L 163.64 163.64 L 149.497 163.64 L 135.355 149.497 L 135.355 163.64 L 128.995 170 L 120 170 L 110 160 L 110 160 L 110 180 L 100 190 L 90 180 L 90 160 L 80 170 L 71.005 170 L 64.645 163.64 L 64.645 149.497 L 64.645 149.497 L 50.503 163.64 L 36.36 163.64 L 36.36 149.497 L 50.503 135.355 L 36.36 135.355 L 30 128.995 L 30 120 L 40 110 L 40 110 L 20 110 L 10 100 L 20 90 L 40 90 L 30 80 L 30 71.005 L 36.36 64.645 L 50.503 64.645 L 36.36 50.503 L 36.36 36.36 L 50.503 36.36 L 64.645 50.503 L 64.645 36.36 L 71.005 30 L 80 30 L 90 40 L 90 20 L 100 10 L 110 20 L 110 40 L 120 30 L 128.995 30 L 135.355 36.36 L 135.355 50.503 L 149.497 36.36 L 163.64 36.36 L 163.64 50.503 L 149.497 64.645 L 163.64 64.645 L 170 71.005 Z  M 151.213 121.213 L 140 110 L 124.142 110 L 135.355 121.213 L 151.213 121.213 Z  M 110 124.142 L 110 140 L 121.213 151.213 L 121.213 135.355 L 121.213 135.355 L 110 124.142 Z  M 78.787 151.213 L 90 140 L 90 140 L 90 124.142 L 78.787 135.355 L 78.787 151.213 Z  M 75.858 110 L 60 110 L 48.787 121.213 L 64.645 121.213 L 64.645 121.213 L 75.858 110 Z  M 48.787 78.787 L 60 90 L 60 90 L 75.858 90 L 64.645 78.787 L 48.787 78.787 Z  M 90 75.858 L 90 60 L 78.787 48.787 L 78.787 64.645 L 90 75.858 Z  M 121.213 48.787 L 110 60 L 110 75.858 L 121.213 64.645 L 121.213 48.787 Z " fill-rule="evenodd" fill="rgb(150,150,150)"/></g></svg>