<?xml version="1.0" encoding="UTF-8" standalone="no"?><!-- Generator: Gravit.io --><svg xmlns="http://www.w3.org/2000/svg" xmlns:xlink="http://www.w3.org/1999/xlink" style="isolation:isolate" viewBox="0 0 200 200" width="200pt" height="200pt"><defs><clipPath id="_clipPath_KmQTagobizvj8Z2wgsEW9FGivRXWgOOx"><rect width="200" height="200"/></clipPath></defs><g clip-path="url(#_clipPath_KmQTagobizvj8Z2wgsEW9FGivRXWgOOx)"><path d=" M 40 100 C 40 66.885 66.885 40 100 40 C 133.115 40 160 66.885 160 100 C 160 133.115 133.115 160 100 160 C 66.885 160 40 133.115 40 100 Z  M 30 100 C 30 61.366 61.366 30 100 30 C 138.634 30 170 61.366 170 100 C 170 138.634 138.634 170 100 170 C 61.366 170 30 138.634 30 100 L 30 100 Z  M 5.895 58.842 L 43.232 51.51 C 46.485 50.871 49.581 47.699 50.14 44.431 L 56.56 6.927 C 57.119 3.658 59.808 2.506 62.561 4.355 L 94.146 25.571 C 96.899 27.42 101.331 27.366 104.037 25.451 L 135.096 3.471 C 137.803 1.555 140.519 2.642 141.158 5.895 L 148.49 43.232 C 149.129 46.485 152.301 49.581 155.569 50.14 L 193.073 56.56 C 196.342 57.119 197.494 59.808 195.645 62.561 L 174.429 94.146 C 172.58 96.899 172.634 101.331 174.549 104.037 L 196.529 135.096 C 198.445 137.803 197.358 140.519 194.105 141.158 L 156.768 148.49 C 153.515 149.129 150.419 152.301 149.86 155.569 L 143.44 193.073 C 142.881 196.342 140.192 197.494 137.439 195.645 L 105.854 174.429 C 103.101 172.58 98.669 172.634 95.963 174.549 L 64.904 196.529 C 62.197 198.445 59.481 197.358 58.842 194.105 L 51.51 156.768 C 50.871 153.515 47.699 150.419 44.431 149.86 L 6.927 143.44 C 3.658 142.881 2.506 140.192 4.355 137.439 L 25.571 105.854 C 27.42 103.101 27.366 98.669 25.451 95.963 L 3.471 64.904 C 1.555 62.197 2.642 59.481 5.895 58.842 L 5.895 58.842 Z " fill-rule="evenodd" fill="rgb(150,150,150)"/></g></svg>