<?xml version="1.0" encoding="UTF-8" standalone="no"?><!-- Generator: Gravit.io --><svg xmlns="http://www.w3.org/2000/svg" xmlns:xlink="http://www.w3.org/1999/xlink" style="isolation:isolate" viewBox="0 0 200 200" width="200pt" height="200pt"><defs><clipPath id="_clipPath_SNif8ZtVfRB8cPTSWm74kZLBKllEzOUr"><rect width="200" height="200"/></clipPath></defs><g clip-path="url(#_clipPath_SNif8ZtVfRB8cPTSWm74kZLBKllEzOUr)"><path d=" M 65 40 L 125 40 C 127.76 40 130 42.24 130 45 L 130 45 C 130 47.76 127.76 50 125 50 L 65 50 C 62.24 50 60 47.76 60 45 L 60 45 C 60 42.24 62.24 40 65 40 L 65 40 L 65 40 L 65 40 L 65 40 L 65 40 L 65 40 Z  M 85 60 L 175 60 C 177.76 60 180 62.24 180 65 L 180 65 C 180 67.76 177.76 70 175 70 L 85 70 C 82.24 70 80 67.76 80 65 L 80 65 C 80 62.24 82.24 60 85 60 L 85 60 L 85 60 L 85 60 L 85 60 L 85 60 L 85 60 Z  M 25 80 L 95 80 C 97.76 80 100 82.24 100 85 L 100 85 C 100 87.76 97.76 90 95 90 L 25 90 C 22.24 90 20 87.76 20 85 L 20 85 C 20 82.24 22.24 80 25 80 L 25 80 L 25 80 L 25 80 L 25 80 L 25 80 Z  M 35 100 L 175 100 C 177.76 100 180 102.24 180 105 L 180 105 C 180 107.76 177.76 110 175 110 L 35 110 C 32.24 110 30 107.76 30 105 L 30 105 C 30 102.24 32.24 100 35 100 L 35 100 L 35 100 L 35 100 L 35 100 Z  M 55 120 L 145 120 C 147.76 120 150 122.24 150 125 L 150 125 C 150 127.76 147.76 130 145 130 L 55 130 C 52.24 130 50 127.76 50 125 L 50 125 C 50 122.24 52.24 120 55 120 L 55 120 L 55 120 L 55 120 Z  M 25 140 L 75 140 C 77.76 140 80 142.24 80 145 L 80 145 C 80 147.76 77.76 150 75 150 L 25 150 C 22.24 150 20 147.76 20 145 L 20 145 C 20 142.24 22.24 140 25 140 L 25 140 L 25 140 Z  M 135 140 L 175 140 C 177.76 140 180 142.24 180 145 L 180 145 C 180 147.76 177.76 150 175 150 L 135 150 C 132.24 150 130 147.76 130 145 L 130 145 C 130 142.24 132.24 140 135 140 L 135 140 Z  M 65 160 L 125 160 C 127.76 160 130 162.24 130 165 L 130 165 C 130 167.76 127.76 170 125 170 L 65 170 C 62.24 170 60 167.76 60 165 L 60 165 C 60 162.24 62.24 160 65 160 Z " fill-rule="evenodd" fill="rgb(150,150,150)"/></g></svg>